<svg id="Layer_1" enable-background="new 0 0 256 256" height="512" viewBox="0 0 256 256" width="512" xmlns="http://www.w3.org/2000/svg"><g><path d="m203.877 198.434c-3.88 0-8.018-.263-12.4-.795-22.869-2.778-49.73-12.545-75.636-27.501-25.906-14.957-47.795-33.336-61.635-51.752-14.105-18.77-18.212-35.449-11.562-46.965 6.648-11.517 23.148-16.298 46.455-13.47 22.869 2.778 49.73 12.544 75.637 27.502 25.905 14.956 47.795 33.336 61.635 51.752 14.105 18.77 18.212 35.449 11.563 46.966-5.401 9.35-17.297 14.263-34.057 14.263zm-127.181-138.372c-15.116 0-26.442 4.176-31.455 12.857-6.01 10.409-1.975 25.916 11.363 43.663 13.603 18.101 35.173 36.197 60.737 50.957 52.409 30.257 105.339 37.044 117.994 15.13 12.652-21.915-19.691-64.362-72.1-94.621-31.648-18.271-63.494-27.986-86.539-27.986z" fill="#3a312a"/><path d="m26.095 98.37 41.83-41.83-8.082-8.082-41.83 41.831c-2.232 2.232-2.232 5.85 0 8.082 2.232 2.231 5.85 2.231 8.082-.001z" fill="#87796f"/><path d="m22.054 101.541c-1.848 0-3.695-.703-5.101-2.11-1.363-1.363-2.113-3.174-2.113-5.102 0-1.927.75-3.739 2.113-5.101l41.831-41.831c.563-.563 1.559-.563 2.121 0l8.082 8.082c.586.585.586 1.536 0 2.121l-41.832 41.831c-1.406 1.406-3.254 2.11-5.101 2.11zm37.79-50.962-40.77 40.771c-.796.796-1.234 1.854-1.234 2.98s.438 2.184 1.234 2.98c1.644 1.643 4.317 1.642 5.961 0l40.77-40.77zm-33.749 47.792h.01z" fill="#3a312a"/><path d="m70.891 33.436-10.355-10.356-20.178 20.178 32.767 32.768 20.178-20.178-10.76-10.76z" fill="#f16c7a"/><path d="m73.125 77.525c-.384 0-.768-.146-1.061-.439l-32.767-32.767c-.586-.585-.586-1.536 0-2.121l20.178-20.178c.563-.563 1.559-.563 2.121 0l10.356 10.356c.586.585.586 1.536 0 2.121-.586.586-1.535.586-2.121 0l-9.296-9.295-18.056 18.056 30.646 30.646 18.056-18.057-9.699-9.699c-.586-.585-.586-1.535 0-2.121s1.535-.586 2.121 0l10.76 10.76c.281.281.439.663.439 1.061s-.158.779-.439 1.061l-20.177 20.177c-.293.293-.677.439-1.061.439z" fill="#3a312a"/><path d="m35.173 38.282c-1.67 1.67-1.67 4.378 0 6.048l4.727 4.727c1.67 1.67 4.378 1.67 6.048 0l20.386-20.386c1.67-1.67 1.67-4.378 0-6.048l-4.727-4.727c-1.67-1.67-4.378-1.67-6.048 0z" fill="#d6df58"/><path d="m42.925 51.811c-1.543 0-2.994-.601-4.085-1.692l-4.727-4.727c-2.252-2.252-2.252-5.917 0-8.169l20.386-20.386c1.091-1.091 2.542-1.692 4.085-1.692s2.994.601 4.085 1.692l4.727 4.727c1.091 1.091 1.692 2.542 1.692 4.084 0 1.543-.601 2.994-1.692 4.085l-20.387 20.385c-1.091 1.091-2.541 1.693-4.084 1.693zm-6.691-12.468c-1.083 1.083-1.083 2.845 0 3.927l4.726 4.727c1.05 1.049 2.879 1.049 3.927 0l20.387-20.386c.524-.525.813-1.222.813-1.964s-.289-1.439-.813-1.963l-4.727-4.728c-1.049-1.049-2.878-1.049-3.927 0z" fill="#3a312a"/><path d="m98.488 60.824c1.67-1.67 1.67-4.378 0-6.048l-4.727-4.727c-1.67-1.67-4.378-1.67-6.048 0l-20.387 20.386c-1.67 1.67-1.67 4.378 0 6.048l4.727 4.727c1.67 1.67 4.378 1.67 6.048 0z" fill="#d6df58"/><path d="m75.077 83.963c-1.543 0-2.994-.601-4.085-1.692l-4.727-4.727c-2.252-2.252-2.252-5.917 0-8.17l20.387-20.386c1.091-1.091 2.541-1.692 4.084-1.692s2.994.601 4.085 1.692l4.727 4.727c2.252 2.252 2.252 5.917 0 8.169l-20.386 20.387c-1.091 1.091-2.542 1.692-4.085 1.692zm15.659-33.668c-.742 0-1.439.289-1.963.813l-20.387 20.387c-1.082 1.083-1.082 2.845 0 3.927l4.728 4.727c1.049 1.049 2.878 1.049 3.926 0l20.387-20.386c1.082-1.083 1.082-2.845 0-3.927l-4.727-4.727c-.525-.525-1.222-.814-1.964-.814zm7.752 10.529h.01z" fill="#3a312a"/><path d="m47.573 203.081s3.41 12.659 13.229 13.246c0 0-13.107 4.525-13.328 14.202 0 0-2.58-13.572-12.932-14.059 0 .001 12.057-1.825 13.031-13.389z" fill="#d6df58"/><path d="m47.473 232.029c-.713 0-1.335-.506-1.472-1.217-.024-.124-2.496-12.417-11.529-12.842-.771-.037-1.388-.651-1.428-1.421s.511-1.445 1.273-1.561c.441-.069 10.901-1.817 11.762-12.033.061-.725.634-1.301 1.359-1.367.725-.061 1.392.398 1.584 1.101.032.116 3.26 11.626 11.87 12.141.714.043 1.298.584 1.396 1.293.098.708-.319 1.388-.995 1.622-.121.042-12.124 4.31-12.319 12.819-.017.767-.61 1.396-1.374 1.459-.043.004-.086.006-.127.006zm-7.746-15.73c3.88 1.97 6.234 5.748 7.591 8.878 2.027-4.022 5.945-6.788 8.954-8.428-4.137-1.843-6.787-5.653-8.339-8.724-1.793 4.361-5.273 6.87-8.206 8.274z" fill="#3a312a"/><path d="m25.863 220.061s2.412 8.954 9.357 9.369c0 0-9.271 3.201-9.427 10.045 0 0-1.825-9.6-9.147-9.944 0 .001 8.528-1.29 9.217-9.47z" fill="#d6df58"/><path d="m25.791 240.976c-.713 0-1.336-.507-1.472-1.22-.016-.082-1.705-8.442-7.744-8.725-.771-.037-1.388-.651-1.428-1.421-.039-.77.511-1.445 1.273-1.561.296-.047 7.368-1.243 7.947-8.114.061-.726.635-1.303 1.36-1.368.725-.063 1.392.399 1.582 1.102.021.079 2.229 7.919 7.998 8.264.715.043 1.299.584 1.396 1.293.098.709-.32 1.388-.996 1.622-.081.028-8.287 2.953-8.417 8.662-.018.767-.611 1.397-1.376 1.461-.039.004-.081.005-.123.005zm-4.521-11.527c2.108 1.333 3.525 3.395 4.449 5.281 1.377-2.233 3.517-3.873 5.368-4.974-2.289-1.27-3.887-3.351-4.944-5.225-1.173 2.287-3.016 3.877-4.873 4.918z" fill="#3a312a"/><path d="m25.863 193.404s2.412 8.954 9.357 9.37c0 0-9.271 3.201-9.427 10.045 0 0-1.825-9.6-9.147-9.944 0 0 8.528-1.292 9.217-9.471z" fill="#d6df58"/><g fill="#3a312a"><path d="m25.791 214.319c-.713 0-1.336-.507-1.472-1.22-.016-.082-1.705-8.442-7.744-8.726-.771-.037-1.388-.651-1.428-1.421-.039-.771.511-1.445 1.273-1.561.296-.047 7.368-1.243 7.947-8.114.061-.726.635-1.303 1.36-1.368.733-.067 1.392.399 1.582 1.102.021.079 2.229 7.919 7.998 8.265.715.043 1.299.585 1.396 1.293.098.709-.32 1.388-.996 1.622-.081.028-8.287 2.953-8.417 8.662-.018.767-.611 1.398-1.376 1.461-.039.003-.081.005-.123.005zm-4.521-11.527c2.108 1.333 3.525 3.395 4.45 5.281 1.377-2.233 3.517-3.873 5.368-4.974-2.289-1.27-3.887-3.351-4.944-5.225-1.174 2.287-3.017 3.876-4.874 4.918z"/><path d="m76.699 198.434c-16.762 0-28.656-4.912-34.055-14.264-6.649-11.517-2.543-28.196 11.562-46.966 13.84-18.416 35.729-36.796 61.635-51.752 25.906-14.957 52.767-24.724 75.636-27.502 23.307-2.83 39.807 1.953 46.455 13.47 6.649 11.517 2.543 28.196-11.563 46.965-13.84 18.416-35.73 36.796-61.635 51.752-25.906 14.957-52.768 24.724-75.637 27.501-4.378.532-8.519.796-12.398.796zm39.892-111.684.75 1.299c-52.409 30.259-84.752 72.705-72.1 94.621 12.654 21.915 65.583 15.128 117.994-15.13 52.408-30.259 84.752-72.705 72.1-94.62-12.653-21.915-65.584-15.129-117.994 15.129z"/><path d="m140.288 240.544c-13.298 0-25.69-11.896-34.892-33.497-9.029-21.194-14.001-49.34-14.001-79.253 0-29.914 4.972-58.06 14.001-79.253 9.202-21.601 21.594-33.497 34.892-33.497 13.299 0 25.69 11.896 34.893 33.497 9.028 21.194 14.001 49.34 14.001 79.253s-4.973 58.06-14.001 79.253c-9.203 21.601-21.594 33.497-34.893 33.497zm0-222.5c-25.306 0-45.893 49.234-45.893 109.75s20.587 109.75 45.893 109.75 45.893-49.234 45.893-109.75-20.587-109.75-45.893-109.75z"/></g><circle cx="140.288" cy="127.794" fill="#f16c7a" r="26.939"/><path d="m140.288 156.234c-15.681 0-28.439-12.758-28.439-28.439 0-15.682 12.758-28.44 28.439-28.44 15.682 0 28.439 12.758 28.439 28.44 0 15.681-12.757 28.439-28.439 28.439zm0-53.88c-14.027 0-25.439 11.412-25.439 25.44 0 14.027 11.412 25.439 25.439 25.439s25.439-11.412 25.439-25.439-11.412-25.44-25.439-25.44z" fill="#3a312a"/><circle cx="210.63" cy="197.138" fill="#8ac6dd" r="11.973"/><path d="m210.63 210.611c-7.429 0-13.473-6.044-13.473-13.473s6.044-13.473 13.473-13.473c7.43 0 13.474 6.044 13.474 13.473-.001 7.429-6.044 13.473-13.474 13.473zm0-23.946c-5.774 0-10.473 4.698-10.473 10.473s4.698 10.473 10.473 10.473 10.474-4.698 10.474-10.473c-.001-5.774-4.699-10.473-10.474-10.473z" fill="#3a312a"/><circle cx="204.644" cy="57.452" fill="#fce8cb" r="11.973"/><path d="m204.644 70.925c-7.429 0-13.473-6.044-13.473-13.473s6.044-13.473 13.473-13.473 13.473 6.044 13.473 13.473-6.045 13.473-13.473 13.473zm0-23.946c-5.775 0-10.473 4.698-10.473 10.473s4.698 10.473 10.473 10.473c5.774 0 10.473-4.698 10.473-10.473-.001-5.775-4.699-10.473-10.473-10.473z" fill="#3a312a"/><circle cx="113.848" cy="219.089" fill="#d7e057" r="11.973"/><path d="m113.848 232.562c-7.429 0-13.473-6.044-13.473-13.473s6.044-13.473 13.473-13.473 13.473 6.044 13.473 13.473-6.044 13.473-13.473 13.473zm0-23.946c-5.775 0-10.473 4.698-10.473 10.473s4.698 10.473 10.473 10.473 10.473-4.698 10.473-10.473-4.698-10.473-10.473-10.473z" fill="#3a312a"/><path d="m165.726 127.794c0 14.03-11.41 25.44-25.44 25.44-2.61 0-5.13-.39-7.5-1.12 10.38-3.21 17.94-12.9 17.94-24.32s-7.56-21.11-17.94-24.32c2.37-.73 4.89-1.12 7.5-1.12 14.03 0 25.44 11.41 25.44 25.44z" fill="#d04e5d"/></g></svg>