<svg id="Layer_1" enable-background="new 0 0 491.5 491.5" height="512" viewBox="0 0 491.5 491.5" width="512" xmlns="http://www.w3.org/2000/svg"><g><path d="m147.6 68.6h75.1c-.6-7.1-.1-14.7 1.8-21.6h-76.9c-5.9 0-10.8 4.9-10.8 10.8s4.9 10.8 10.8 10.8z" fill="#4d81c2"/><path d="m199.5 107.4c28.9 15.5 63.6 15.5 92.5 0-22.1-42.5-70.4-42.5-92.5 0z" fill="#03a8dd"/><path d="m268.8 68.6h75.1c5.9 0 10.8-4.9 10.8-10.8s-4.9-10.8-10.8-10.8h-76.9c1.9 6.8 2.4 14.5 1.8 21.6z" fill="#4d81c2"/><path d="m184.1 159h123.2c-2.2-14.4-5.7-29.4-11.3-42.9-31.4 16.7-69.2 16.7-100.6 0-5.5 13.5-9 28.4-11.3 42.9z" fill="#4d81c2"/><path d="m245.8 65.5c4.6 0 9.1.5 13.5 1.6.5-7.7-.4-16.3-3.4-22.9-1.9-4.2-5.1-8.6-10.1-8.6-5.1 0-8.2 4.4-10.1 8.6-3 6.6-3.9 15.2-3.4 22.9 4.3-1.1 8.9-1.6 13.5-1.6z" fill="#03a8dd"/><path d="m162.6 373c-6.9 0-12.5 5.6-12.5 12.5v37.5c0 6.9 5.6 12.5 12.5 12.5h62.6v-.7c-14.5-14.7-25.1-41.9-31.4-61.8z" fill="#4d81c2"/><path d="m328.9 373h-31.2c-6.3 19.9-16.9 47.1-31.4 61.8v.7h62.5c6.9 0 12.5-5.6 12.5-12.5v-37.5c.1-6.9-5.5-12.5-12.4-12.5z" fill="#4d81c2"/><path d="m444.6 168.6h-397.7c-6.3 0-11.4 5.1-11.4 11.4v76.4c0 6.3 5.1 11.4 11.4 11.4h397.7c6.3 0 11.4-5.1 11.4-11.4v-76.4c0-6.3-5.1-11.4-11.4-11.4zm-368 68.7c0 2.7-2.1 4.8-4.8 4.8s-4.8-2.1-4.8-4.8v-38.3c0-2.7 2.1-4.8 4.8-4.8s4.8 2.1 4.8 4.8zm32.2 0c0 2.7-2.1 4.8-4.8 4.8s-4.8-2.1-4.8-4.8v-38.3c0-2.7 2.1-4.8 4.8-4.8s4.8 2.1 4.8 4.8zm32.3 0c0 2.7-2.1 4.8-4.8 4.8s-4.8-2.1-4.8-4.8v-38.3c0-2.7 2.1-4.8 4.8-4.8s4.8 2.1 4.8 4.8zm219 0c0 2.7-2.1 4.8-4.8 4.8s-4.8-2.1-4.8-4.8v-38.3c0-2.7 2.1-4.8 4.8-4.8s4.8 2.1 4.8 4.8zm32.2 0c0 2.7-2.1 4.8-4.8 4.8s-4.8-2.1-4.8-4.8v-38.3c0-2.7 2.1-4.8 4.8-4.8s4.8 2.1 4.8 4.8zm32.3 0c0 2.7-2.1 4.8-4.8 4.8s-4.8-2.1-4.8-4.8v-38.3c0-2.7 2.1-4.8 4.8-4.8s4.8 2.1 4.8 4.8z" fill="#03a8dd"/><path d="m289.6 366.8c8.8-28.8 14.6-59.4 18-89.4h-123.7c3.4 30 9.2 60.6 18 89.4 4.7 15.2 12.7 37.6 23.3 52.9v-54c0-8.1 6.6-14.6 14.6-14.6h11.9c8.1 0 14.6 6.6 14.6 14.6v54c10.7-15.3 18.7-37.8 23.3-52.9z" fill="#4d81c2"/><path d="m251.7 360.6h-11.9c-2.8 0-5 2.3-5 5v85.4c0 2.8 2.3 5 5 5h11.9c2.8 0 5-2.3 5-5v-85.3c.1-2.8-2.2-5.1-5-5.1z" fill="#03a8dd"/></g></svg>