<svg id="Layer_1" enable-background="new 0 0 512 512" viewBox="0 0 512 512" xmlns="http://www.w3.org/2000/svg"><g id="Layer_2_00000026140378099152888000000006165457318643704967_"><g id="add"><path d="m487.4 190.9h-166.3v-166.3c0-13.6-11-24.6-24.6-24.6h-81c-13.6 0-24.6 11-24.6 24.6v166.3h-166.3c-13.6 0-24.6 11-24.6 24.6v81c0 13.6 11 24.6 24.6 24.6h166.3v166.3c0 13.6 11 24.6 24.6 24.6h81c13.6 0 24.6-11 24.6-24.6v-166.3h166.3c13.6 0 24.6-11 24.6-24.6v-81c0-13.6-11-24.6-24.6-24.6z" fill="#43bcff"/></g></g></svg>