<svg clip-rule="evenodd" fill-rule="evenodd" stroke-linejoin="round" stroke-miterlimit="2" viewBox="0 0 510 510" xmlns="http://www.w3.org/2000/svg"><g fill="#a79ba7"><path d="m248.019 288.072c-4.415 0-8-3.585-8-8s3.585-8 8-8h175.78c4.416 0 8 3.585 8 8s-3.584 8-8 8z"/><path d="m225.581 326.723c-4.416 0-8-3.584-8-8 0-4.415 3.584-8 8-8h112.393c2.063 0 4.045.797 5.534 2.223l30.339 29.064c3.189 3.054 3.298 8.122.243 11.311-3.054 3.188-8.122 3.297-11.311.243l-28.018-26.841z"/><path d="m225.581 199.787c-4.416 0-8-3.585-8-8s3.584-8 8-8h109.18l28.018-26.84c3.189-3.055 8.257-2.946 11.311.243 3.055 3.188 2.946 8.256-.243 11.311l-30.339 29.063c-1.489 1.426-3.471 2.223-5.534 2.223z"/><path d="m225.581 246.915c-4.416 0-8-3.585-8-8s3.584-8 8-8h136.902l22.948-26.32c1.519-1.743 3.718-2.743 6.03-2.743h73.614c4.415 0 8 3.585 8 8s-3.585 8-8 8h-69.975l-22.948 26.32c-1.519 1.743-3.718 2.743-6.03 2.743z"/></g><path d="m400.708 280.072c0-12.745 10.347-23.092 23.091-23.092 12.745 0 23.092 10.347 23.092 23.092s-10.347 23.092-23.092 23.092c-12.744 0-23.091-10.347-23.091-23.092z" fill="#6cf5c2"/><path d="m418.799 257.524c1.611-.356 3.284-.544 5-.544 12.745 0 23.092 10.347 23.092 23.092s-10.347 23.092-23.092 23.092c-1.716 0-3.389-.188-5-.544 10.345-2.287 18.092-11.52 18.092-22.548s-7.747-20.261-18.092-22.548z" fill="#00e499"/><path d="m351.17 351.14c0-12.744 10.347-23.091 23.092-23.091s23.092 10.347 23.092 23.091c0 12.745-10.347 23.092-23.092 23.092s-23.092-10.347-23.092-23.092z" fill="#6cf5c2"/><path d="m369.262 328.592c1.61-.356 3.283-.543 5-.543 12.745 0 23.092 10.347 23.092 23.091 0 12.745-10.347 23.092-23.092 23.092-1.717 0-3.39-.187-5-.543 10.344-2.288 18.092-11.521 18.092-22.549s-7.748-20.261-18.092-22.548z" fill="#00e499"/><path d="m354.524 158.86c0 12.744 10.347 23.091 23.092 23.091 12.744 0 23.092-10.347 23.092-23.091 0-12.745-10.348-23.092-23.092-23.092-12.745 0-23.092 10.347-23.092 23.092z" fill="#6cf5c2"/><path d="m372.616 181.408c10.344-2.287 18.092-11.52 18.092-22.548s-7.748-20.261-18.092-22.549c1.61-.356 3.283-.543 5-.543 12.744 0 23.092 10.347 23.092 23.092 0 12.744-10.348 23.091-23.092 23.091-1.717 0-3.39-.187-5-.543z" fill="#00e499"/><path d="m446.891 209.852c0-12.745 10.347-23.092 23.092-23.092s23.092 10.347 23.092 23.092-10.347 23.092-23.092 23.092-23.092-10.347-23.092-23.092z" fill="#6cf5c2"/><path d="m464.983 187.304c1.61-.356 3.284-.544 5-.544 12.745 0 23.092 10.347 23.092 23.092s-10.347 23.092-23.092 23.092c-1.716 0-3.39-.188-5-.544 10.345-2.287 18.092-11.52 18.092-22.548s-7.747-20.261-18.092-22.548z" fill="#00e499"/><path d="m191.99 133.194c12.899 3.069 25.212 8.174 36.49 15.123l23.711-10.519 27.936 27.936-10.519 23.711c6.949 11.278 12.054 23.591 15.123 36.49l24.194 9.312v39.524l-24.194 9.312c-3.069 12.881-8.174 25.194-15.123 36.472l10.519 23.711-27.936 27.953-23.711-10.536c-11.278 6.949-23.591 12.071-36.49 15.14l-9.312 24.177h-39.524l-9.312-24.194c-12.881-3.069-25.194-8.174-36.472-15.123l-23.711 10.536-27.953-27.953 10.536-23.694c-6.949-11.295-12.071-23.608-15.14-36.489l-24.177-9.312v-39.524l24.177-9.312c3.069-12.899 8.191-25.212 15.14-36.49l-10.536-23.711 27.953-27.936 23.694 10.519c11.295-6.949 23.608-12.054 36.489-15.123l9.312-24.194h39.524z" fill="#ffe177"/><path d="m244.224 141.333 7.967-3.535 27.936 27.936-10.519 23.711c6.949 11.278 12.054 23.591 15.123 36.49l24.194 9.312v39.524l-24.194 9.312c-3.069 12.881-8.174 25.194-15.123 36.472l10.519 23.711-27.936 27.953-7.967-3.535 24.418-24.418-10.536-23.711c6.949-11.278 12.053-23.591 15.123-36.472l24.194-9.312v-39.524l-24.194-9.312c-3.07-12.899-8.174-25.212-15.123-36.49l10.536-23.711zm-174.1 0 3.535-3.535 23.694 10.519c-1.673.932-3.328 1.897-4.949 2.915zm121.866-8.139c12.899 3.069 25.212 8.174 36.49 15.123l-6.536 2.915c-11.278-6.95-28.557-14.969-41.456-18.038l-9.312-24.194h11.502zm-94.62 228.489-23.711 10.536-3.535-3.535 22.28-9.898c1.621 1 3.276 1.965 4.966 2.897zm131.11 0c-11.278 6.949-23.591 12.071-36.49 15.14l-9.312 24.177h-11.502l9.312-24.177c12.899-3.069 30.178-11.088 41.473-18.037z" fill="#ffd064"/><path d="m162.937 331.5c42.137 0 76.5-34.363 76.5-76.5s-34.363-76.5-76.5-76.5-76.512 34.363-76.512 76.5 34.375 76.5 76.512 76.5z" fill="#ffc338"/><path d="m95.56 255c0-40.717 31.807-74.003 71.933-76.37-1.503-.083-3.03-.13-4.556-.13-42.256 0-76.512 34.245-76.512 76.5s34.256 76.5 76.512 76.5c1.526 0 3.053-.047 4.556-.13-40.126-2.367-71.933-35.653-71.933-76.37z" fill="#f5b829"/><path d="m192.105 228.968c1.538 3.68-.189 7.904-3.857 9.442-3.669 1.538-7.893-.189-9.443-3.857-2.177-5.207-6.331-8.212-10.875-9.36-2.899-.734-5.928-.781-8.756-.213-2.733.556-5.242 1.668-7.218 3.266-2.449 1.988-4 4.863-3.834 8.425.154 3.242 1.858 5.478 4.224 7.017 3.195 2.094 7.609 3.254 11.81 3.94 6.035.994 12.614 2.639 18.116 5.964 6.354 3.834 11.147 9.608 12.223 18.471.083.686.131 1.503.154 2.438.201 8.117-3.502 14.164-9.064 18.388-4.402 3.337-9.951 5.396-15.442 6.319v4.201c0 3.987-3.23 7.206-7.206 7.206-3.988 0-7.218-3.219-7.218-7.206v-4.331c-4.461-.876-8.721-2.533-12.413-4.994-5.692-3.798-10.058-9.383-11.904-16.791-.947-3.857 1.408-7.75 5.266-8.697 3.857-.947 7.762 1.408 8.709 5.266.899 3.597 3.053 6.342 5.869 8.224 3.491 2.319 7.975 3.431 12.519 3.325.758-.024 1.681-.095 2.745-.225 3.858-.462 7.692-1.68 10.402-3.739 2.07-1.562 3.443-3.751 3.372-6.615 0-.201-.035-.556-.095-1.077-.449-3.668-2.544-6.129-5.348-7.821-3.633-2.201-8.461-3.373-12.993-4.106-5.833-.959-12.152-2.71-17.335-6.083-6.011-3.928-10.33-9.738-10.756-18.4-.414-8.602 3.289-15.501 9.135-20.258 3.621-2.946 8.082-5.005 12.827-6.058v-4.438c0-3.987 3.23-7.206 7.218-7.206 3.976 0 7.206 3.219 7.206 7.206v4.331c.426.095.852.19 1.278.296 8.662 2.201 16.543 7.893 20.684 17.75z" fill="#ffe177" fill-rule="nonzero"/></svg>