<svg height="512" viewBox="0 0 512 512" width="512" xmlns="http://www.w3.org/2000/svg"><g id="flat"><path d="m448 128.7v-24.7h-224v24.7c0 14.5-7.6 27.9-20 35.3-12.4 7.4-20 20.9-20 35.3v288.7h304v-288.7c0-14.5-7.6-27.9-20-35.3-12.4-7.4-20-20.9-20-35.3z" fill="#cde8e4"/><path d="m465 104h-258c-8.3 0-15-6.7-15-15v-50c0-8.3 6.7-15 15-15h258c8.3 0 15 6.7 15 15v50c0 8.3-6.7 15-15 15z" fill="#21d6d3"/><path d="m264 104h-57c-8.3 0-15-6.7-15-15v-50c0-8.3 6.7-15 15-15h57z" fill="#156887"/><path d="m264 24h72v80h-72z" fill="#21d6d3"/><path d="m336 24h72v80h-72z" fill="#156887"/><path d="m488 416h-236c-11 0-20-9-20-20v-168c0-11 9-20 20-20h236z" fill="#21d6d3"/><path d="m416 280h-40v-40h-32v40h-40v32h40v40h32v-40h40z" fill="#156887"/><path d="m232 384h256v32h-256z" fill="#bf4c4c"/><path d="m104 392h-80v-56c0-22.1 17.9-40 40-40 22.1 0 40 17.9 40 40z" fill="#156887"/><path d="m104 392h-80v56c0 22.1 17.9 40 40 40 22.1 0 40-17.9 40-40z" fill="#bf4c4c"/><path d="m195.9 436.7-56.6-56.6 39.6-39.6c15.6-15.6 40.9-15.6 56.6 0 15.6 15.6 15.6 40.9 0 56.6z" fill="#fc7777"/><path d="m195.9 436.7-56.6-56.6-39.6 39.6c-15.6 15.6-15.6 40.9 0 56.6 15.6 15.6 40.9 15.6 56.6 0z" fill="#21d6d3"/></g></svg>