<svg id="Layer_1" enable-background="new 0 0 512 512" viewBox="0 0 512 512" xmlns="http://www.w3.org/2000/svg"><g><g><path clip-rule="evenodd" d="m19.337 136.364h473.326v39.548h-473.326z" fill="#de2a1b" fill-rule="evenodd"/></g><g><path clip-rule="evenodd" d="m133.202 85.45h245.596v426.55h-245.596z" fill="#ffb300" fill-rule="evenodd"/></g><g><path clip-rule="evenodd" d="m180.24 412.386h151.519v99.614h-151.519z" fill="#00baec" fill-rule="evenodd"/></g><g><path clip-rule="evenodd" d="m105.399 0h301.231v85.45h-301.231z" fill="#de2a1b" fill-rule="evenodd"/></g><g><path clip-rule="evenodd" d="m378.798 175.913h92.066v336.087h-92.066z" fill="#ffca28" fill-rule="evenodd"/></g><g><path clip-rule="evenodd" d="m41.137 175.913h92.066v336.087h-92.066z" fill="#ffca28" fill-rule="evenodd"/></g><g><path clip-rule="evenodd" d="m169.923 287.446h69.158v69.129h-69.158z" fill="#ebedef" fill-rule="evenodd"/></g><g><path clip-rule="evenodd" d="m272.918 287.446h69.158v69.129h-69.158z" fill="#ebedef" fill-rule="evenodd"/></g><g><path clip-rule="evenodd" d="m165.843 387.293h180.313v25.093h-180.313z" fill="#de2a1b" fill-rule="evenodd"/></g><g><path d="m248.816 412.386h14.368v99.614h-14.368z" fill="#23a7f1"/></g><g><path clip-rule="evenodd" d="m169.923 197.275h69.158v69.158h-69.158z" fill="#ebedef" fill-rule="evenodd"/></g><g><path clip-rule="evenodd" d="m272.918 197.275h69.158v69.158h-69.158z" fill="#ebedef" fill-rule="evenodd"/></g><g><path clip-rule="evenodd" d="m169.923 107.133h69.158v69.158h-69.158z" fill="#ebedef" fill-rule="evenodd"/></g><g><path clip-rule="evenodd" d="m272.918 107.133h69.158v69.158h-69.158z" fill="#ebedef" fill-rule="evenodd"/></g><g><path clip-rule="evenodd" d="m68.27 388.867h37.8v37.8h-37.8z" fill="#ebedef" fill-rule="evenodd"/></g><g><path clip-rule="evenodd" d="m68.27 328.102h37.8v37.77h-37.8z" fill="#ebedef" fill-rule="evenodd"/></g><g><path clip-rule="evenodd" d="m68.27 267.337h37.8v37.771h-37.8z" fill="#ebedef" fill-rule="evenodd"/></g><g><path clip-rule="evenodd" d="m68.27 206.543h37.8v37.8h-37.8z" fill="#ebedef" fill-rule="evenodd"/></g><g><path clip-rule="evenodd" d="m405.931 388.867h37.8v37.8h-37.8z" fill="#ebedef" fill-rule="evenodd"/></g><g><path clip-rule="evenodd" d="m405.931 328.102h37.8v37.77h-37.8z" fill="#ebedef" fill-rule="evenodd"/></g><g><path clip-rule="evenodd" d="m405.931 267.337h37.8v37.771h-37.8z" fill="#ebedef" fill-rule="evenodd"/></g><g><path clip-rule="evenodd" d="m405.931 206.543h37.8v37.8h-37.8z" fill="#ebedef" fill-rule="evenodd"/></g><path d="m171.643 14.046h14.397v21.392 14.398 21.392h-14.397v-21.392h-11.308v21.392h-14.397v-21.392-14.398-21.392h14.397v21.392h11.308zm60.619 20.228v17.078c0 11.056-8.995 20.052-20.051 20.052s-20.051-8.995-20.051-20.052v-17.078c0-11.056 8.995-20.052 20.051-20.052 11.057 0 20.051 8.995 20.051 20.052zm-14.396 0c0-3.118-2.537-5.654-5.654-5.654-3.118 0-5.654 2.536-5.654 5.654v17.078c0 3.118 2.537 5.654 5.654 5.654 3.118 0 5.654-2.536 5.654-5.654zm28.386-20.228h-12.853v14.398h12.853v42.784h14.397v-42.784h12.852v-14.398h-12.852zm30.484 7.199v42.784c0 3.976 3.223 7.199 7.198 7.199h32.903v-14.398h-25.704v-6.994h23.956v-14.398h-23.956v-6.994h25.704v-14.398h-32.903c-3.975 0-7.198 3.223-7.198 7.199zm63.65 35.585v-42.784h-14.397v49.983c0 3.976 3.223 7.199 7.198 7.199h32.903v-14.398z" fill="#ebedef"/><g><path clip-rule="evenodd" d="m95.869 388.867h10.2v37.8h-10.2z" fill="#cdd7db" fill-rule="evenodd"/></g><g><path clip-rule="evenodd" d="m95.869 328.102h10.2v37.77h-10.2z" fill="#cdd7db" fill-rule="evenodd"/></g><g><path clip-rule="evenodd" d="m95.869 267.337h10.2v37.771h-10.2z" fill="#cdd7db" fill-rule="evenodd"/></g><g><path clip-rule="evenodd" d="m95.869 206.543h10.2v37.8h-10.2z" fill="#cdd7db" fill-rule="evenodd"/></g><g><path clip-rule="evenodd" d="m433.53 388.867h10.2v37.8h-10.2z" fill="#cdd7db" fill-rule="evenodd"/></g><g><path clip-rule="evenodd" d="m433.53 328.102h10.2v37.77h-10.2z" fill="#cdd7db" fill-rule="evenodd"/></g><g><path clip-rule="evenodd" d="m433.53 267.337h10.2v37.771h-10.2z" fill="#cdd7db" fill-rule="evenodd"/></g><g><path clip-rule="evenodd" d="m433.53 206.543h10.2v37.8h-10.2z" fill="#cdd7db" fill-rule="evenodd"/></g><g><path clip-rule="evenodd" d="m222.965 287.446h16.117v69.129h-16.117z" fill="#cdd7db" fill-rule="evenodd"/></g><g><path clip-rule="evenodd" d="m222.965 197.275h16.117v69.158h-16.117z" fill="#cdd7db" fill-rule="evenodd"/></g><g><path clip-rule="evenodd" d="m222.965 107.133h16.117v69.158h-16.117z" fill="#cdd7db" fill-rule="evenodd"/></g><g><path clip-rule="evenodd" d="m325.96 287.446h16.117v69.129h-16.117z" fill="#cdd7db" fill-rule="evenodd"/></g><g><path clip-rule="evenodd" d="m325.96 197.275h16.117v69.158h-16.117z" fill="#cdd7db" fill-rule="evenodd"/></g><g><path clip-rule="evenodd" d="m325.96 107.133h16.117v69.158h-16.117z" fill="#cdd7db" fill-rule="evenodd"/></g></g></svg>